# xmcd
#
# Track frame offsets:
#  150
#  28570
#  44634
#
# Disc length: 831 seconds
#
# Revision: 0
# Processed by: cddbd v1.5.1PL2 Copyright (c) Steve Scherf et al.
# Submitted via: Collectorz.com_Music_Collector 6.10
#
DISCID=20033d03
DTITLE=Aramchek - Benicassim EP
DYEAR=2001
DGENRE=Electro
TTITLE0=Benicassim
TTITLE1=Flight To Valencia
TTITLE2=Beach Bridge
EXTD=
EXTT0=
EXTT1=
EXTT2=
PLAYORDER=
